<?xml version="1.0" encoding="UTF-8"?>
<svg version="1.1" xmlns="http://www.w3.org/2000/svg" width="256" height="256">
<path d="M0 0 C0.72001694 -0.00979385 1.44003387 -0.01958771 2.18186951 -0.02967834 C31.61782604 -0.34791882 31.61782604 -0.34791882 45.390625 4.23828125 C46.4101123 4.56771729 46.4101123 4.56771729 47.45019531 4.90380859 C65.92893048 10.96191829 81.28801896 20.91533148 95.390625 34.23828125 C96.15246094 34.93566406 96.91429687 35.63304687 97.69921875 36.3515625 C114.14601412 51.94323853 124.15602647 73.48289838 129.390625 95.23828125 C129.65617188 96.34042969 129.92171875 97.44257812 130.1953125 98.578125 C135.87375298 128.17602366 128.7120166 161.87061444 111.82080078 186.79785156 C92.59688206 213.91528504 64.37437951 233.70497308 31.30078125 239.3515625 C24.21456347 240.38295217 17.23084215 240.58407846 10.078125 240.55078125 C8.80283936 240.5451416 7.52755371 240.53950195 6.21362305 240.53369141 C-3.08114434 240.41403409 -11.62064986 239.76277427 -20.609375 237.23828125 C-21.6602832 236.94824219 -21.6602832 236.94824219 -22.73242188 236.65234375 C-54.40437722 227.69014853 -80.51266518 206.95979536 -96.70068359 178.30664062 C-106.38510133 160.68583157 -110.98497917 142.81601372 -110.92504883 122.70605469 C-110.92189943 120.50534953 -110.94539545 118.30600791 -110.97070312 116.10546875 C-111.02740153 103.59944524 -109.30715688 91.67560557 -104.984375 79.86328125 C-104.73204102 79.16686523 -104.47970703 78.47044922 -104.21972656 77.75292969 C-92.96811698 47.904724 -70.32151396 23.30710064 -41.29052734 9.90844727 C-28.39278239 4.34078718 -14.08800495 0.15757926 0 0 Z " fill="#25AEEE" transform="translate(117.609375,7.76171875)"/>
<path d="M0 0 C0.72001694 -0.00979385 1.44003387 -0.01958771 2.18186951 -0.02967834 C31.61782604 -0.34791882 31.61782604 -0.34791882 45.390625 4.23828125 C46.4101123 4.56771729 46.4101123 4.56771729 47.45019531 4.90380859 C65.92893048 10.96191829 81.28801896 20.91533148 95.390625 34.23828125 C96.15246094 34.93566406 96.91429687 35.63304687 97.69921875 36.3515625 C114.14601412 51.94323853 124.15602647 73.48289838 129.390625 95.23828125 C129.65617188 96.34042969 129.92171875 97.44257812 130.1953125 98.578125 C135.87375298 128.17602366 128.7120166 161.87061444 111.82080078 186.79785156 C92.59688206 213.91528504 64.37437951 233.70497308 31.30078125 239.3515625 C24.21456347 240.38295217 17.23084215 240.58407846 10.078125 240.55078125 C8.80283936 240.5451416 7.52755371 240.53950195 6.21362305 240.53369141 C-3.08114434 240.41403409 -11.62064986 239.76277427 -20.609375 237.23828125 C-21.6602832 236.94824219 -21.6602832 236.94824219 -22.73242188 236.65234375 C-54.40437722 227.69014853 -80.51266518 206.95979536 -96.70068359 178.30664062 C-106.38510133 160.68583157 -110.98497917 142.81601372 -110.92504883 122.70605469 C-110.92189943 120.50534953 -110.94539545 118.30600791 -110.97070312 116.10546875 C-111.02740153 103.59944524 -109.30715688 91.67560557 -104.984375 79.86328125 C-104.73204102 79.16686523 -104.47970703 78.47044922 -104.21972656 77.75292969 C-92.96811698 47.904724 -70.32151396 23.30710064 -41.29052734 9.90844727 C-28.39278239 4.34078718 -14.08800495 0.15757926 0 0 Z M-67.609375 56.23828125 C-86.38408675 80.20928884 -92.74798617 107.8022265 -89.30908203 137.86328125 C-88.54330191 142.17116025 -87.19308556 146.17080103 -85.609375 150.23828125 C-84.95582031 152.10033203 -84.95582031 152.10033203 -84.2890625 154 C-75.29396507 178.85033026 -57.11578385 198.39188987 -33.609375 210.23828125 C-28.41003368 212.65390443 -23.08673705 214.55939633 -17.609375 216.23828125 C-16.51238281 216.57859375 -15.41539063 216.91890625 -14.28515625 217.26953125 C-5.41164232 219.49563927 3.40643462 219.51164042 12.515625 219.55078125 C13.79783936 219.5564209 15.08005371 219.56206055 16.40112305 219.56787109 C24.11235991 219.51620865 24.11235991 219.51620865 31.390625 217.23828125 C32.504375 216.99078125 33.618125 216.74328125 34.765625 216.48828125 C49.88575787 212.82972358 63.63624632 205.2658063 75.390625 195.23828125 C76.09058594 194.67238281 76.79054687 194.10648438 77.51171875 193.5234375 C85.42903985 186.96425335 92.49644813 178.30363158 97.390625 169.23828125 C97.73514773 166.25388192 97.73514773 166.25388192 95.95703125 164.73046875 C95.29574219 164.19679687 94.63445312 163.663125 93.953125 163.11328125 C90.76963464 160.45195069 87.79712317 157.700382 84.890625 154.73828125 C82.16233093 151.97267717 79.40545666 149.32541094 76.453125 146.80078125 C72.36004197 143.29358685 68.61837796 139.48102967 64.83203125 135.6484375 C62.11859773 132.96973593 59.28285477 130.49220007 56.38671875 128.015625 C53.32258687 125.2872884 50.48580668 122.34160217 47.60546875 119.421875 C45.61403039 117.45853454 43.57759922 115.61748456 41.453125 113.80078125 C38.2802658 111.08208877 35.32724118 108.2107645 32.390625 105.23828125 C28.87445796 101.67923412 25.27476525 98.33960937 21.46484375 95.1015625 C18.05751453 92.04074133 14.9349501 88.69780353 11.78515625 85.375 C9.37284346 83.2224142 7.44490754 82.22020867 4.390625 81.23828125 C3.71128393 82.46048862 3.04770977 83.69146576 2.390625 84.92578125 C1.83375 85.95251953 1.83375 85.95251953 1.265625 87 C0.17921106 89.77908567 -0.14365338 91.27748855 0.390625 94.23828125 C2.16881902 96.41360527 3.8522907 98.21704237 5.890625 100.11328125 C6.3959375 100.60441406 6.90125 101.09554687 7.421875 101.6015625 C10.27891871 104.35146707 13.2291472 106.97224939 16.234375 109.55859375 C21.66420087 114.27786585 26.63903647 119.43973728 31.6796875 124.56640625 C35.79580387 128.72495681 39.98901378 132.68310943 44.42578125 136.49609375 C48.61633834 140.21177658 52.47077912 144.28093838 56.390625 148.27734375 C60.30535079 152.23794523 64.32377141 155.98367533 68.54296875 159.61767578 C71.10822546 161.86769878 73.49439063 164.24626584 75.890625 166.67578125 C76.7465625 167.54074219 77.6025 168.40570313 78.484375 169.296875 C79.1134375 169.93753906 79.7425 170.57820312 80.390625 171.23828125 C59.49060036 172.6983379 59.49060036 172.6983379 52.95703125 169.62109375 C50.4621261 167.31873465 48.45938452 164.92805676 46.390625 162.23828125 C44.53343092 160.33869758 42.66485246 158.46891463 40.765625 156.61328125 C39.84523437 155.68257812 38.92484375 154.751875 37.9765625 153.79296875 C35.24593502 151.09533979 32.40330793 148.60155194 29.484375 146.11328125 C26.85076944 143.75482851 24.37236282 141.25382445 21.890625 138.73828125 C18.83724549 135.64336623 15.76738815 132.61893848 12.453125 129.80078125 C6.15866662 124.43351487 0.29321349 118.43158175 -5.33984375 112.37890625 C-6.5728837 111.01550384 -6.5728837 111.01550384 -8.609375 111.23828125 C-10.11821713 114.67196719 -11.61490901 118.11081674 -13.109375 121.55078125 C-13.75326172 123.01547852 -13.75326172 123.01547852 -14.41015625 124.50976562 C-15.01923828 125.91645508 -15.01923828 125.91645508 -15.640625 127.3515625 C-16.01767578 128.21563721 -16.39472656 129.07971191 -16.78320312 129.9699707 C-17.78049011 132.30574229 -17.78049011 132.30574229 -17.609375 135.23828125 C-24.209375 135.23828125 -30.809375 135.23828125 -37.609375 135.23828125 C-35.95574275 131.23623484 -34.301829 127.23430706 -32.6472168 123.23266602 C-32.08553111 121.87400912 -31.52400462 120.5152864 -30.96264648 119.15649414 C-30.15130765 117.19269356 -29.33937839 115.22913795 -28.52734375 113.265625 C-27.79680786 111.49819946 -27.79680786 111.49819946 -27.05151367 109.69506836 C-26.30211642 107.89877316 -25.54940946 106.10350445 -24.75820923 104.32522583 C-23.10506626 100.76657031 -23.10506626 100.76657031 -22.671875 96.92578125 C-23.90557119 94.7051281 -25.34673776 94.28082436 -27.609375 93.23828125 C-33.67253992 106.81536241 -39.59319758 120.44421883 -45.296875 134.17578125 C-45.56439575 134.81655609 -45.8319165 135.45733093 -46.10754395 136.11752319 C-46.86594754 137.93610768 -47.6186536 139.75706505 -48.37109375 141.578125 C-48.80381592 142.62347412 -49.23653809 143.66882324 -49.68237305 144.74584961 C-50.72557393 147.10749913 -50.72557393 147.10749913 -50.609375 149.23828125 C-57.209375 149.23828125 -63.809375 149.23828125 -70.609375 149.23828125 C-52.08658286 105.34044871 -52.08658286 105.34044871 -43.609375 85.36328125 C-43.32100769 84.68363312 -43.03264038 84.00398499 -42.73553467 83.30374146 C-37.71048079 71.46176383 -37.71048079 71.46176383 -36.77587891 69.39593506 C-35.47775524 66.49443117 -34.609375 64.4553526 -34.609375 61.23828125 C-29.00789697 65.96355042 -23.8547518 70.98137728 -18.80859375 76.296875 C-16.72345612 78.56918014 -16.72345612 78.56918014 -13.609375 78.23828125 C-9.649375 68.66828125 -5.689375 59.09828125 -1.609375 49.23828125 C3.09625009 53.27167418 7.51838364 57.26655915 11.828125 61.67578125 C15.23657143 65.12673063 18.61994968 68.54301245 22.328125 71.67578125 C26.23332503 74.98400803 29.79343184 78.60342115 33.390625 82.23828125 C38.70263952 87.62366537 38.70263952 87.62366537 44.328125 92.67578125 C49.13880149 96.73836118 53.47094181 101.2950517 57.89770508 105.76489258 C61.57889771 109.46816409 65.31078787 113.00505607 69.3046875 116.37109375 C72.89228261 119.58246166 76.22498016 123.05370862 79.609375 126.4765625 C83.06144072 129.9527124 86.59770115 133.23757327 90.3359375 136.40625 C94.88979967 140.46663281 99.11346911 144.89036359 103.390625 149.23828125 C104.380625 148.90828125 105.370625 148.57828125 106.390625 148.23828125 C109.62743278 139.05290613 109.94076653 129.18923743 109.890625 119.55078125 C109.88417969 118.24222168 109.87773437 116.93366211 109.87109375 115.58544922 C109.39341904 90.095847 98.64655588 67.81681094 81.140625 49.48828125 C70.32954923 39.17687705 58.2964709 31.6633767 44.390625 26.23828125 C43.69469238 25.96580566 42.99875977 25.69333008 42.28173828 25.41259766 C31.55103982 21.43927852 20.87185922 20.77344301 9.515625 20.73828125 C7.57308838 20.72861328 7.57308838 20.72861328 5.59130859 20.71875 C-22.64521687 21.09432215 -49.18970218 35.11254631 -67.609375 56.23828125 Z " fill="#FBFDFD" transform="translate(117.609375,7.76171875)"/>
<path d="M0 0 C0.72001694 -0.00979385 1.44003387 -0.01958771 2.18186951 -0.02967834 C31.61782604 -0.34791882 31.61782604 -0.34791882 45.390625 4.23828125 C46.4101123 4.56771729 46.4101123 4.56771729 47.45019531 4.90380859 C65.92893048 10.96191829 81.28801896 20.91533148 95.390625 34.23828125 C96.15246094 34.93566406 96.91429687 35.63304687 97.69921875 36.3515625 C114.14601412 51.94323853 124.15602647 73.48289838 129.390625 95.23828125 C129.65617188 96.34042969 129.92171875 97.44257812 130.1953125 98.578125 C135.87375298 128.17602366 128.7120166 161.87061444 111.82080078 186.79785156 C92.59688206 213.91528504 64.37437951 233.70497308 31.30078125 239.3515625 C24.21456347 240.38295217 17.23084215 240.58407846 10.078125 240.55078125 C8.80283936 240.5451416 7.52755371 240.53950195 6.21362305 240.53369141 C-3.08114434 240.41403409 -11.62064986 239.76277427 -20.609375 237.23828125 C-21.6602832 236.94824219 -21.6602832 236.94824219 -22.73242188 236.65234375 C-54.40437722 227.69014853 -80.51266518 206.95979536 -96.70068359 178.30664062 C-106.38510133 160.68583157 -110.98497917 142.81601372 -110.92504883 122.70605469 C-110.92189943 120.50534953 -110.94539545 118.30600791 -110.97070312 116.10546875 C-111.02740153 103.59944524 -109.30715688 91.67560557 -104.984375 79.86328125 C-104.73204102 79.16686523 -104.47970703 78.47044922 -104.21972656 77.75292969 C-92.96811698 47.904724 -70.32151396 23.30710064 -41.29052734 9.90844727 C-28.39278239 4.34078718 -14.08800495 0.15757926 0 0 Z M-62.609375 34.23828125 C-63.40988281 34.90472656 -64.21039063 35.57117188 -65.03515625 36.2578125 C-86.33405689 54.64177806 -100.3718022 81.06143858 -102.609375 109.23828125 C-104.18626307 139.10711831 -97.08754275 168.49851529 -77.1015625 191.52734375 C-76.27914062 192.42195312 -75.45671875 193.3165625 -74.609375 194.23828125 C-74.14047852 194.75487305 -73.67158203 195.27146484 -73.18847656 195.80371094 C-55.74198149 214.83111819 -30.2447081 229.84303697 -4.02490234 231.45922852 C0.09540957 231.57939365 4.20644237 231.62582876 8.328125 231.61328125 C9.42569626 231.61146851 9.42569626 231.61146851 10.54544067 231.60961914 C43.1515514 231.46352923 70.12602728 218.94897305 93.20288086 195.86279297 C113.44839511 174.87257157 122.79931206 146.32459353 122.76147461 117.5859375 C122.20994298 87.71553833 109.8958063 61.3884716 89.453125 39.92578125 C71.97217621 23.29583199 50.81068025 13.75743892 27.390625 9.23828125 C26.60115479 9.06321045 25.81168457 8.88813965 24.99829102 8.70776367 C-5.94118117 3.13744207 -38.96478781 14.27639082 -62.609375 34.23828125 Z " fill="#919296" transform="translate(117.609375,7.76171875)"/>
</svg>
